<svg width="65" height="61" viewBox="0 0 87 97" fill="none" xmlns="http://www.w3.org/2000/svg">
<path opacity="0.5" d="M46.4525 0.938719L60.5762 25.4557L75.7525 51.3633C75.8797 51.598 75.7176 51.8698 75.4644 51.8705L61.178 51.9118L46.5007 26.6363C46.3735 26.4016 46.048 26.4025 45.922 26.638L31.3754 51.998L17.1613 52.0391C16.9081 52.0398 16.7447 51.769 16.8706 51.5336L45.8738 0.940394C46.0179 0.722966 46.3435 0.722024 46.4525 0.938719Z" fill="#DFB82E"/>
<path opacity="0.5" d="M58.0854 77.8103L36.7217 91.7322C36.3372 91.9674 35.8988 91.735 35.9031 91.3222L36.6312 19.0396C36.6355 18.6267 37.0795 18.3282 37.4597 18.5059L58.5948 29.2076L58.0854 77.8103Z" fill="#DFB82E"/>
<path d="M47.5709 25.3059L62.1231 51.978L30.4901 52.3562L46.9567 25.3132C47.1 25.0622 47.4455 25.0581 47.5709 25.3059Z" fill="#DFB82E"/>
</svg>
